<svg width="63" height="63" viewBox="0 0 63 63" fill="none" xmlns="http://www.w3.org/2000/svg">
<path d="M24.7777 43.7903C24.4417 43.7903 24.1057 43.6617 23.8484 43.407L6.21629 25.7723C4.16879 23.7248 4.16879 20.3937 6.21629 18.3462C8.26904 16.2987 11.5975 16.3039 13.6398 18.3462L29.4187 34.125C29.9305 34.6369 29.9305 35.469 29.4187 35.9809C28.9068 36.4928 28.0747 36.4928 27.5628 35.9809L11.7839 20.202C10.7654 19.1835 9.10116 19.1809 8.07216 20.202C7.57866 20.6982 7.30304 21.357 7.30304 22.0579C7.30304 22.7614 7.57604 23.4203 8.07216 23.9164L25.7069 41.5485C26.2188 42.0604 26.2188 42.8925 25.7069 43.4044C25.4497 43.6617 25.1137 43.7903 24.7777 43.7903Z" fill="black"/>
<path d="M34.0595 30.7963C33.7235 30.7963 33.3875 30.6677 33.1303 30.4131L15.4981 12.7783C14.4718 11.752 12.8101 11.752 11.7838 12.7783C11.2903 13.2745 11.0146 13.9333 11.0146 14.6342C11.0146 15.3351 11.2876 15.994 11.7838 16.4901L13.6396 18.346C14.1515 18.8578 14.1515 19.69 13.6396 20.2018C13.1278 20.7137 12.2956 20.7137 11.7838 20.2018L9.9279 18.346C8.93565 17.3537 8.38965 16.036 8.38965 14.6342C8.38965 13.2325 8.93565 11.9147 9.9279 10.9225C11.9098 8.94058 15.3669 8.93533 17.354 10.9225L34.9861 28.5572C35.498 29.0691 35.498 29.9012 34.9861 30.4131C34.7289 30.6703 34.3955 30.7963 34.0595 30.7963Z" fill="black"/>
<path d="M39.6303 25.229C39.2943 25.229 38.9583 25.1004 38.701 24.8457L24.778 10.9227C23.7517 9.89636 22.0927 9.89636 21.0663 10.9227C20.0425 11.9465 20.0425 13.6107 21.0663 14.6345C21.5782 15.1464 21.5782 15.9785 21.0663 16.4904C20.5544 17.0022 19.7223 17.0022 19.2104 16.4904C17.1655 14.4455 17.1655 11.1117 19.2104 9.06686C21.2553 7.02198 24.589 7.02198 26.6339 9.06686L40.5569 22.9899C41.0688 23.5017 41.0688 24.3339 40.5569 24.8457C40.3023 25.1004 39.9663 25.229 39.6303 25.229Z" fill="black"/>
<path d="M38.1967 59.4667C37.312 59.4667 36.4169 59.367 35.5297 59.1648L13.4272 54.0986C12.4717 53.8991 11.5818 53.4108 10.8573 52.6863C9.86503 51.6941 9.31641 50.3737 9.31641 48.9746C9.31641 47.5728 9.86503 46.2551 10.8573 45.2628C11.5398 44.5803 12.3693 44.1105 13.2644 43.8926C13.2907 43.8821 13.3169 43.8768 13.3432 43.8689L24.4732 41.1993C25.1793 41.0234 25.888 41.4671 26.056 42.1706C26.224 42.8767 25.7883 43.5828 25.0848 43.7534L14.0309 46.4047C13.9968 46.4152 13.9627 46.4257 13.9259 46.4336C13.4849 46.5307 13.0649 46.7696 12.7132 47.1213C12.217 47.6175 11.9414 48.2763 11.9414 48.9772C11.9414 49.6781 12.2144 50.3369 12.7132 50.8331C13.0623 51.1822 13.4954 51.429 13.9312 51.5261C13.9495 51.5287 13.9653 51.5313 13.981 51.5366L36.1177 56.6107C39.223 57.3221 42.4177 56.4033 44.6673 54.1511L55.4088 43.4069C57.1439 41.6718 58.0994 39.3644 58.0994 36.9101C58.0994 34.4557 57.1439 32.1509 55.4088 30.4132L32.2064 7.21082C31.18 6.18445 29.521 6.18445 28.4947 7.21082C27.4709 8.23457 27.4709 9.89882 28.4947 10.9226C29.0065 11.4344 29.0065 12.2666 28.4947 12.7784C27.9828 13.2903 27.1507 13.2903 26.6388 12.7784C24.5939 10.7336 24.5939 7.39982 26.6388 5.35495C28.6837 3.31007 32.0174 3.31007 34.0623 5.35495L57.2647 28.5573C59.4985 30.7886 60.7244 33.7522 60.7244 36.9101C60.7244 40.068 59.4959 43.0316 57.2647 45.2628L46.5232 56.007C44.2709 58.2513 41.2889 59.4667 38.1967 59.4667Z" fill="black"/>
</svg>
