<svg width="201" height="40" viewBox="0 0 201 40" fill="none" xmlns="http://www.w3.org/2000/svg">
<circle cx="26" cy="26" r="14" fill="#EC615B"/>
<g style="mix-blend-mode:multiply">
<circle cx="14" cy="14" r="14" fill="#5222D0"/>
</g>
<path d="M64.1496 14.8754C64.1496 11.8504 61.7246 9.50039 58.6996 9.50039H51.2246V27.0004H59.4246C62.9996 27.0004 64.8496 24.5254 64.8746 21.4754C64.8746 19.9254 64.1996 18.6254 62.7746 17.9004C63.6246 17.2004 64.1496 15.9254 64.1496 14.8754ZM59.0996 20.0504C60.8996 20.0504 60.9246 23.0254 59.1246 23.0254H55.5496V20.0504H59.0996ZM58.3496 13.5004C60.1496 13.5004 60.1496 16.3254 58.3746 16.3254H55.5496V13.5004H58.3496Z" fill="black"/>
<path d="M78.8133 18.4004V27.0004C80.3633 27.0004 81.9133 27.0004 83.4383 27.0004V9.42539H81.8133L72.9633 18.0754V9.50039C71.4383 9.50039 69.9133 9.50039 68.3883 9.50039V27.0254H69.9883L78.8133 18.4004Z" fill="black"/>
<path d="M99.0439 27.0004H103.419V26.3504L95.5189 9.27539H93.5939L85.7189 26.3504V27.0004H90.0939L91.1189 24.8004H98.0189L99.0439 27.0004ZM96.5689 20.9754H92.5689L94.5439 16.3754L96.5689 20.9754Z" fill="black"/>
<path d="M110.192 27.0004V22.5254H113.417C121.792 22.5254 121.792 9.52539 113.417 9.50039C110.842 9.50039 108.242 9.50039 105.717 9.50039C105.717 15.3504 105.717 21.1754 105.717 27.0004C107.192 27.0004 108.692 27.0004 110.192 27.0004ZM113.392 18.5004H110.192C110.192 17.0754 110.192 14.9254 110.192 13.5004C111.217 13.5004 112.342 13.4754 113.392 13.5004C115.992 13.5254 115.842 18.5004 113.392 18.5004Z" fill="black"/>
<path d="M124.15 27.0004H128.975L137.275 10.1754V9.50039H132.425L129.425 15.9504H129.3L126 9.50039H121V10.1754L126.9 20.8754L124.15 26.5254V27.0004Z" fill="black"/>
<path d="M139.726 27.0004H161.901V9.50039H157.326V22.8754H153.101V9.50039H148.526V22.8754H144.301V9.50039H139.726V27.0004Z" fill="black"/>
<path d="M170.936 27.0004V20.3254C171.511 20.3254 172.061 20.3254 172.661 20.2254L176.511 27.0004H181.486V26.3004L176.736 18.6004C180.211 16.3754 180.111 13.0754 180.111 9.50039C178.561 9.50039 177.036 9.50039 175.511 9.50039C175.511 12.7754 175.736 16.1254 171.261 16.1254H170.936V9.50039C169.386 9.50039 167.886 9.50039 166.386 9.50039V27.0004C167.886 27.0004 169.386 27.0004 170.936 27.0004Z" fill="black"/>
<path d="M196.236 27.0004H200.611V26.3504L192.711 9.27539H190.786L182.911 26.3504V27.0004H187.286L188.311 24.8004H195.211L196.236 27.0004ZM193.761 20.9754H189.761L191.736 16.3754L193.761 20.9754Z" fill="black"/>
</svg>
